<?xml version="1.0" encoding="utf-8"?>
<!-- Generator: Adobe Illustrator 22.1.0, SVG Export Plug-In . SVG Version: 6.00 Build 0)  -->
<svg version="1.1" id="Layer_1" xmlns="http://www.w3.org/2000/svg" xmlns:xlink="http://www.w3.org/1999/xlink" x="0px" y="0px"
	 viewBox="0 0 141.7 141.7" style="enable-background:new 0 0 141.7 141.7;" xml:space="preserve">
<style type="text/css">
	.st0{opacity:0;fill:#414FB0;}
	.st1{fill:#FFFFFF;}
</style>
<ellipse class="st0" cx="71" cy="70.5" rx="68" ry="68.5"/>
<g>
	<path class="st1" d="M104.3,79.5c0.4-0.3,0.5-0.9,0.2-1.4c-1.2-1.6-3.1-4.3-5.4-7.9c-2.9-4.6-4-7.1-4.3-9.3
		c-0.1-0.6-0.1-1.1-0.1-1.7l0-0.7c0,0,0,0,0,0c0-0.2,0.2-16.3-7.2-22.3c-1.6,0.7-6.4,3-8.7,5.9c-0.2,0.3-0.5,0.6-0.7,0.9
		c-2.9,3.7-6.2,7.9-11.8,7.7c-3.1-0.1-4.8-1.2-5.7-2.3c-1.6,2.9-4.7,9-5.7,14.3l-0.2,0.9l-0.9,0c0,0-2.6-0.2-4.5-2.7
		c0.1,2.1,0.5,4.4,1.6,6.3c2.1,3.4,3.2,6.5,3.5,9.3c0.2,2.2-0.2,3.3-0.3,3.5L53,82.7L52,80c-1-2.8-3.9-8.4-6.3-7.6
		c-1.7,0.5-3,3.5-2.8,6.8c0.1,2.1,1,8.9,9.2,10.6l1.2,0.3l-0.4,1.2c0,0.1-1.1,3.2-3.4,6.5c-1.6,2.4-3.5,4.2-5.5,5.5
		c0.7,2.7,2.2,10.1,1,16.3c1.8,1.2,7.7,5.1,14.3,6.2c6.5,1.1,15.1,0.3,18.2-0.1c-0.5-2.6-1.8-8.9-2.5-12l-0.5-2l1.9,0.8
		c0.1,0,6.8,2.7,11.5,0.9c3.5-1.3,5.1-4.1,4.8-8.1c-0.2-2,1-4.2,1.9-5.7c-2.5-0.5-7.1-1.8-10.2-4.9L84,94c-0.5,0.8-0.9,2.1-1.2,3.2
		c-0.1,0.6-0.8,0.5-0.8-0.1c0-1.1,0.1-2.4,0.6-3.7c0.1-0.2,0.1-0.4,0.2-0.5c0,0,0,0,0,0c0.5-1.1,1.1-1.8,1.6-2.2
		c0.4-0.4,1,0.2,0.8,0.8c-0.1,0.4-0.3,0.9-0.5,1.3l0.5,0c0.1,0,7.3-0.5,12.1-2.9c0.7-0.4,1-1.3,0.7-2c-0.6-1.3-0.9-2.7-1-3.9l-0.1-1
		l1-0.2C97.8,82.6,101.2,82,104.3,79.5z M81.5,69.9c-1.3,0.1-2.5-1.4-2.8-3.5c-0.2-2.1,0.6-3.9,1.9-4c1.3-0.1,2.5,1.4,2.8,3.5
		C83.7,67.9,82.8,69.7,81.5,69.9z M84,56.2c-0.6,1.9-1.2,1.1-6.4,2.6c-5.2,1.5-7.7,4.5-7.7,4.5s1.7-3.5,5.1-5.8c4.2-2.8,7.5-3,7.5-3
		S84.6,54.3,84,56.2z"/>
	<path class="st1" d="M50.4,91.6c-5.6-1.7-8.4-5.7-9.3-9.8l-0.4-2.7c-0.1-4.3,1.6-8,4.4-8.8c2.7-0.8,5,1.5,6.6,4
		c-0.5-1.6-1.3-3.5-2.7-5.8c-3.1-5.2-1.5-12.9-1.4-13.2l0.2-1.1l0.6-2.8l0.6-2.8l0.2-1l0,0.6l0.1,1.7l0.1,1.7l0.2,3.7
		c0.3,4,2.1,5.4,3.2,5.9c1.7-7.4,6.6-15.3,6.8-15.7l1.8-2.9l0.2,3.4c0,0.1,0.3,2.3,4.6,2.5c4.4,0.2,7.3-3.4,10-6.9
		c0.3-0.3,0.5-0.6,0.8-1c0.9-1.2,2.2-2.3,3.5-3.2c0.9-0.6,1.8-1.2,2.7-1.7c2.1-1.2,3.9-1.9,4-2l0.1,0l0.3-0.1l0.2,0
		c0.1,0,0.2,0,0.3,0.1l0.1,0.1c3.7,2.7,6.3,7.7,7.7,14.8c0.5,2.7,0.7,5.3,0.8,7c0.1-0.1,0.1-0.2,0.2-0.3c2.5-3.3,3.1-7.4,1.9-12.3
		c-1.2-4.6-3.7-8.1-3.7-8.2l-0.4-0.6l0.4-0.6c1.7-2.9,2.3-6.9,2.4-9.3c-7,3.7-16.5,2.4-16.9,2.3l-2-0.3l1.3-1.5
		c2.3-2.7,2.8-5.2,2.9-6.7c-6.2,3.8-12.1,3.3-18.3,2.9c-3.8-0.3-7.7-0.5-12.1,0l-0.2,0c-6,0.8-12.9,1.7-18.9,5.2
		c-6.9,4-11.8,10.7-14.9,20.6c-3.2,10.3-2.7,19.6,1.5,27.6c3.2,6,7.3,9,7.4,9l0.8,0.6l-0.5,0.9c-1.3,2.4-3.1,3.7-4.5,4.5
		c6.6,2.5,13.4-0.4,13.5-0.5l2-0.9L38,90.5c-1.7,7.7-5.5,11.2-8.8,12.8c2.3,0.2,5.2,0.2,8.8-0.2c1.2-0.1,2.4-0.5,3.4-1
		c0.4-0.2,0.7-0.3,1-0.5c0.3-0.2,0.7-0.4,1-0.7C47.3,98.1,49.5,93.7,50.4,91.6z"/>
	<g>
		<path class="st1" d="M115.1,83.5c2.9,1.5,4.9,4.1,6.1,7.2c1.2,3,1.5,6.5,0.9,9.7c-0.6,3.3-2.1,6.3-4.3,8.8
			c-2.2,2.4-5.1,4.2-8.3,4.5l-0.1,0c-0.1,0-0.2-0.1-0.2-0.2c0-0.1,0-0.1,0.1-0.2l1.6-1.3c0.5-0.5,1-1,1.5-1.5c0.5-0.5,0.9-1,1.4-1.6
			c0.4-0.5,0.8-1.1,1.2-1.7c1.5-2.3,2.5-5,3-7.7c0.5-2.7,0.5-5.5-0.1-8.2c-0.2-0.7-0.3-1.3-0.5-2c-0.2-0.6-0.5-1.3-0.7-1.9
			c-0.3-0.6-0.6-1.3-0.9-1.9l-1.1-1.8c-0.1-0.1,0-0.2,0.1-0.3C114.9,83.4,115,83.4,115.1,83.5L115.1,83.5z"/>
		<path class="st1" d="M108.6,85.6c2.5,1,4.3,3,5.5,5.4c1.1,2.4,1.5,5.2,1.1,7.8c-0.4,2.7-1.6,5.2-3.4,7.2c-1.8,1.9-4.3,3.3-7,3.4
			l-0.1,0c-0.1,0-0.2-0.1-0.2-0.2c0-0.1,0-0.1,0.1-0.2l1.3-1l1.1-1.2l1-1.2l0.9-1.3c1.1-1.9,1.8-3.9,2.1-6.1
			c0.3-2.1,0.2-4.3-0.2-6.4c-0.1-0.5-0.3-1.1-0.4-1.6c-0.2-0.5-0.4-1-0.6-1.5c-0.2-0.5-0.4-1-0.7-1.5l-0.8-1.4
			c-0.1-0.1,0-0.2,0.1-0.3c0.1,0,0.1,0,0.2,0L108.6,85.6z"/>
		<path class="st1" d="M103.8,88.9c2.1,0.4,3.6,1.8,4.5,3.6c0.8,1.8,1,3.8,0.6,5.7c-0.5,1.9-1.5,3.6-3,4.8c-1.5,1.2-3.4,1.9-5.4,1.5
			l-0.2,0c-0.1,0-0.2-0.1-0.1-0.2c0,0,0-0.1,0.1-0.1l0.8-0.7c0.3-0.2,0.5-0.5,0.8-0.8c0.2-0.3,0.5-0.5,0.7-0.8
			c0.2-0.3,0.4-0.6,0.6-0.9c0.8-1.2,1.4-2.5,1.7-3.8c0.3-1.4,0.4-2.8,0.2-4.2c-0.1-0.3-0.1-0.7-0.2-1l-0.3-1l-0.4-1l-0.5-0.9
			c0-0.1,0-0.2,0.1-0.2c0,0,0.1,0,0.1,0L103.8,88.9z"/>
	</g>
</g>
</svg>
