<?xml version="1.0" encoding="utf-8"?>
<!-- Generator: Adobe Illustrator 22.1.0, SVG Export Plug-In . SVG Version: 6.00 Build 0)  -->
<svg version="1.1" id="Layer_1" xmlns="http://www.w3.org/2000/svg" xmlns:xlink="http://www.w3.org/1999/xlink" x="0px" y="0px"
	 viewBox="0 0 141.7 141.7" style="enable-background:new 0 0 141.7 141.7;" xml:space="preserve">
<style type="text/css">
	.st0{fill:#414FB0;fill-opacity:0;}
</style>
<ellipse class="st0" cx="71" cy="70.5" rx="68" ry="68.5"/>
<g>
	<polygon points="117.9,111.3 108.8,114.3 108.8,40.9 117.9,50 	"/>
	<polygon points="24.1,111.3 33.2,114.3 33.2,40.9 24.1,50 	"/>
	<g>
		<polygon points="29,42.8 27.1,44.7 27.1,33.3 34.5,26.4 34.4,29.2 29,34.2 		"/>
	</g>
	<g>
		<polygon points="113,42.8 114.9,44.7 114.9,33.3 107.5,26.4 107.6,29.2 113,34.2 		"/>
	</g>
	<circle cx="40" cy="27.3" r="4.5"/>
	<circle cx="102" cy="27.3" r="4.5"/>
	<g>
		<polygon points="75,35.9 72.6,27.9 70.5,27.9 69.1,20.5 67.6,27.9 46,27.9 46,26.8 66.6,26.8 69.2,14.8 71.5,26.8 73.4,26.8 
			75,32 76.6,26.8 95.2,26.8 95.2,27.9 77.5,27.9 		"/>
	</g>
	<path d="M34.3,40.9v73.3h73.3V40.9H34.3z M40,53.8h20.8v33.6H40V53.8z M96.9,107.5H45.1c-2.8,0-5.1-2.3-5.1-5.1v-8.9h62v8.9
		C102,105.2,99.7,107.5,96.9,107.5z M102,87.4H81.2V53.8H102V87.4z"/>
	<rect x="84.6" y="70.8" width="13.6" height="13.2"/>
	<path d="M98.2,68.9H84.6v-6.4h7.7c3.3,0,5.9,2.6,5.9,5.9V68.9z"/>
	<rect x="43.8" y="70.8" width="13.6" height="13.2"/>
	<path d="M57.4,68.9H43.8v-0.5c0-3.3,2.6-5.9,5.9-5.9h7.7V68.9z"/>
	<path d="M89.4,121.5H52.6c-1.5,0-2.8-1.2-2.8-2.8v-0.5c0-1.5,1.2-2.8,2.8-2.8h36.8c1.5,0,2.8,1.2,2.8,2.8v0.5
		C92.2,120.2,90.9,121.5,89.4,121.5z"/>
	<path d="M90.5,128.6H51.5c-1.5,0-2.8-1.2-2.8-2.8v-0.5c0-1.5,1.2-2.8,2.8-2.8h39.1c1.5,0,2.8,1.2,2.8,2.8v0.5
		C93.3,127.4,92.1,128.6,90.5,128.6z"/>
	<path d="M97.5,97.3v-1.1c-2.1,0-3.1,2.2-3.9,4.1c0,0,0,0,0,0h-5.8c0,0,0,0,0,0c-0.9-1.9-1.9-4.1-3.9-4.1s-3.1,2.2-3.9,4.1
		c0,0,0,0,0,0H74c0,0,0,0,0,0c-0.9-1.9-1.9-4.1-3.9-4.1c-2.1,0-3.1,2.2-3.9,4.1c0,0,0,0,0,0h-5.8c0,0,0,0,0,0
		c-0.9-1.9-1.9-4.1-3.9-4.1c-2.1,0-3.1,2.2-3.9,4.1c0,0,0,0,0,0h-5.8c0,0,0,0,0,0c-0.9-1.9-1.9-4.1-3.9-4.1v1.1c1.2,0,2,1.4,2.7,3
		h-2.7v1.1h3.2c0.8,1.7,1.8,3.4,3.6,3.4s2.8-1.7,3.6-3.4h6.5c0.8,1.7,1.8,3.4,3.6,3.4c1.8,0,2.8-1.7,3.6-3.4h6.5
		c0.8,1.7,1.8,3.4,3.6,3.4c1.8,0,2.8-1.7,3.6-3.4H87c0.8,1.7,1.8,3.4,3.6,3.4c1.8,0,2.8-1.7,3.6-3.4h3.2v-1.1h-2.7
		C95.5,98.7,96.2,97.3,97.5,97.3z M83.8,97.3c1.2,0,2,1.4,2.7,3H81C81.8,98.7,82.5,97.3,83.8,97.3z M70.1,97.3c1.2,0,2,1.4,2.7,3
		h-5.4C68.1,98.7,68.8,97.3,70.1,97.3z M56.3,97.3c1.2,0,2,1.4,2.7,3h-5.4C54.4,98.7,55.1,97.3,56.3,97.3z M49.5,103.7
		c-1,0-1.7-1-2.4-2.2h4.7C51.2,102.7,50.5,103.7,49.5,103.7z M63.2,103.7c-1,0-1.7-1-2.4-2.2h4.7C64.9,102.7,64.2,103.7,63.2,103.7z
		 M76.9,103.7c-1,0-1.7-1-2.4-2.2h4.7C78.6,102.7,77.9,103.7,76.9,103.7z M90.6,103.7c-1,0-1.7-1-2.4-2.2H93
		C92.3,102.7,91.6,103.7,90.6,103.7z"/>
</g>
</svg>
